<svg width="345" height="229" viewBox="0 0 345 229" fill="none" xmlns="http://www.w3.org/2000/svg">
<rect width="345" height="228.045" rx="26" fill="white"/>
<g filter="url(#filter0_d_24_395)">
<path d="M119.89 76.5707C123.381 48.8174 146.981 28 174.953 28V28C202.534 28 225.93 48.2549 229.879 75.5517L237.175 125.99C241.83 158.171 216.871 187 184.355 187H166.08C134.186 187 109.518 159.034 113.498 127.39L119.89 76.5707Z" fill="#F0EAD2"/>
</g>
<g filter="url(#filter1_d_24_395)">
<path d="M154 116.887C154 111.427 158.427 107 163.887 107H189.113C194.573 107 199 111.427 199 116.887V116.887C199 128.338 190.39 137.957 179.01 139.221L176.5 139.5L173.99 139.221C162.61 137.957 154 128.338 154 116.887V116.887Z" fill="black"/>
</g>
<ellipse cx="167.5" cy="115.5" rx="4.5" ry="2.5" fill="#998F86"/>
<rect x="175" y="138" width="2" height="49" fill="black"/>
<g filter="url(#filter2_d_24_395)">
<path d="M126 187.087C126 181.393 131.267 177.159 136.828 178.382L171.833 186.083C174.577 186.687 177.421 186.674 180.159 186.047L213.15 178.486C218.704 177.214 224 181.433 224 187.131V187.131C224 192.029 220.029 196 215.131 196H134.913C129.99 196 126 192.01 126 187.087V187.087Z" fill="#4D7FAD"/>
</g>
<ellipse cx="176" cy="202" rx="10" ry="9" fill="#E9C873"/>
<path d="M174 193.05C174 193.022 174.022 193 174.05 193H177.95C177.978 193 178 193.022 178 193.05V201C178 202.105 177.105 203 176 203V203C174.895 203 174 202.105 174 201V193.05Z" fill="#C29062"/>
<path d="M217.814 47.1007L257.211 20.2026C260.038 18.2731 263.903 19.0943 265.7 22.0064L267.663 25.1861L270.272 29.4532L265.906 30.2692C259.269 31.5094 253.194 34.8172 248.551 39.7193L226.5 63L217.814 47.1007Z" fill="#6C584C"/>
<path d="M134.195 46.1548L95.1882 12.5075C92.609 10.2827 88.6973 10.6487 86.5755 13.3132L82.6399 18.2556L78.7521 23.1733L82.4022 24.0506C90.2664 25.9408 97.1231 30.7389 101.593 37.4797L121.5 67.5L134.195 46.1548Z" fill="#6C584C"/>
<g filter="url(#filter3_d_24_395)">
<path d="M285.949 56.4387C291.5 74.9065 289.198 91.9221 280.807 94.4442C272.417 96.9663 245.98 82.7028 240.428 64.2351C234.877 45.7674 251.109 22.0221 259.5 19.5C267.891 16.9779 280.398 37.971 285.949 56.4387Z" fill="#6C584C"/>
</g>
<g filter="url(#filter4_d_24_395)">
<path d="M62.8057 46.14C55.181 64.5946 55.1676 82.1032 62.7757 85.2465C70.3838 88.3898 97.2132 75.6447 104.838 57.1901C112.462 38.7355 100.172 13.4158 92.5643 10.2724C84.9562 7.12908 70.4303 27.6854 62.8057 46.14Z" fill="#6C584C"/>
</g>
<ellipse cx="158" cy="87.5" rx="9" ry="8.5" fill="black"/>
<circle cx="158" cy="91" r="3" fill="white"/>
<ellipse cx="189" cy="87.5" rx="9" ry="8.5" fill="black"/>
<circle cx="189" cy="91" r="3" fill="white"/>
<defs>
<filter id="filter0_d_24_395" x="109.076" y="28" width="132.659" height="167" filterUnits="userSpaceOnUse" color-interpolation-filters="sRGB">
<feFlood flood-opacity="0" result="BackgroundImageFix"/>
<feColorMatrix in="SourceAlpha" type="matrix" values="0 0 0 0 0 0 0 0 0 0 0 0 0 0 0 0 0 0 127 0" result="hardAlpha"/>
<feOffset dy="4"/>
<feGaussianBlur stdDeviation="2"/>
<feComposite in2="hardAlpha" operator="out"/>
<feColorMatrix type="matrix" values="0 0 0 0 0 0 0 0 0 0 0 0 0 0 0 0 0 0 0.25 0"/>
<feBlend mode="normal" in2="BackgroundImageFix" result="effect1_dropShadow_24_395"/>
<feBlend mode="normal" in="SourceGraphic" in2="effect1_dropShadow_24_395" result="shape"/>
</filter>
<filter id="filter1_d_24_395" x="150" y="107" width="53" height="40.5" filterUnits="userSpaceOnUse" color-interpolation-filters="sRGB">
<feFlood flood-opacity="0" result="BackgroundImageFix"/>
<feColorMatrix in="SourceAlpha" type="matrix" values="0 0 0 0 0 0 0 0 0 0 0 0 0 0 0 0 0 0 127 0" result="hardAlpha"/>
<feOffset dy="4"/>
<feGaussianBlur stdDeviation="2"/>
<feComposite in2="hardAlpha" operator="out"/>
<feColorMatrix type="matrix" values="0 0 0 0 0 0 0 0 0 0 0 0 0 0 0 0 0 0 0.25 0"/>
<feBlend mode="normal" in2="BackgroundImageFix" result="effect1_dropShadow_24_395"/>
<feBlend mode="normal" in="SourceGraphic" in2="effect1_dropShadow_24_395" result="shape"/>
</filter>
<filter id="filter2_d_24_395" x="122" y="178.17" width="106" height="25.8296" filterUnits="userSpaceOnUse" color-interpolation-filters="sRGB">
<feFlood flood-opacity="0" result="BackgroundImageFix"/>
<feColorMatrix in="SourceAlpha" type="matrix" values="0 0 0 0 0 0 0 0 0 0 0 0 0 0 0 0 0 0 127 0" result="hardAlpha"/>
<feOffset dy="4"/>
<feGaussianBlur stdDeviation="2"/>
<feComposite in2="hardAlpha" operator="out"/>
<feColorMatrix type="matrix" values="0 0 0 0 0 0 0 0 0 0 0 0 0 0 0 0 0 0 0.25 0"/>
<feBlend mode="normal" in2="BackgroundImageFix" result="effect1_dropShadow_24_395"/>
<feBlend mode="normal" in="SourceGraphic" in2="effect1_dropShadow_24_395" result="shape"/>
</filter>
<filter id="filter3_d_24_395" x="235.297" y="19.2929" width="57.6782" height="83.4411" filterUnits="userSpaceOnUse" color-interpolation-filters="sRGB">
<feFlood flood-opacity="0" result="BackgroundImageFix"/>
<feColorMatrix in="SourceAlpha" type="matrix" values="0 0 0 0 0 0 0 0 0 0 0 0 0 0 0 0 0 0 127 0" result="hardAlpha"/>
<feOffset dy="4"/>
<feGaussianBlur stdDeviation="2"/>
<feComposite in2="hardAlpha" operator="out"/>
<feColorMatrix type="matrix" values="0 0 0 0 0 0 0 0 0 0 0 0 0 0 0 0 0 0 0.25 0"/>
<feBlend mode="normal" in2="BackgroundImageFix" result="effect1_dropShadow_24_395"/>
<feBlend mode="normal" in="SourceGraphic" in2="effect1_dropShadow_24_395" result="shape"/>
</filter>
<filter id="filter4_d_24_395" x="53.0784" y="9.95177" width="58.1621" height="83.7715" filterUnits="userSpaceOnUse" color-interpolation-filters="sRGB">
<feFlood flood-opacity="0" result="BackgroundImageFix"/>
<feColorMatrix in="SourceAlpha" type="matrix" values="0 0 0 0 0 0 0 0 0 0 0 0 0 0 0 0 0 0 127 0" result="hardAlpha"/>
<feOffset dy="4"/>
<feGaussianBlur stdDeviation="2"/>
<feComposite in2="hardAlpha" operator="out"/>
<feColorMatrix type="matrix" values="0 0 0 0 0 0 0 0 0 0 0 0 0 0 0 0 0 0 0.25 0"/>
<feBlend mode="normal" in2="BackgroundImageFix" result="effect1_dropShadow_24_395"/>
<feBlend mode="normal" in="SourceGraphic" in2="effect1_dropShadow_24_395" result="shape"/>
</filter>
</defs>
</svg>
